<?xml version="1.0" standalone="no"?><!DOCTYPE svg PUBLIC "-//W3C//DTD SVG 1.1//EN" "http://www.w3.org/Graphics/SVG/1.1/DTD/svg11.dtd"><svg t="1546380210522" class="icon" style="" viewBox="0 0 1024 1024" version="1.1" xmlns="http://www.w3.org/2000/svg" p-id="1757" xmlns:xlink="http://www.w3.org/1999/xlink" width="200" height="200"><defs><style type="text/css"></style></defs><path d="M240.108055 227.467665l541.706579 0c20.397562 0 36.942377-16.543791 36.942377-36.937261 0-20.388353-16.544815-36.933167-36.942377-36.933167L240.108055 153.597237c-20.388353 0-36.932144 16.543791-36.932144 36.933167C203.175911 210.923874 219.720725 227.467665 240.108055 227.467665L240.108055 227.467665zM835.702961 264.400832l-649.471978 0L116.988969 449.077925c0 54.375421 44.129056 98.499361 98.495268 98.499361 54.370305 0 98.494245-44.124963 98.494245-98.499361 0 54.375421 44.124963 98.499361 98.491175 98.499361 54.370305 0 98.494245-44.124963 98.494245-98.499361 0 54.375421 44.129056 98.499361 98.486058 98.499361 54.375421 0 98.499361-44.124963 98.499361-98.499361 0 54.375421 44.12394 98.499361 98.499361 98.499361 54.358025 0 98.481965-44.124963 98.481965-98.499361L835.702961 264.400832 835.702961 264.400832zM794.140357 583.916936 794.140357 583.916936c-3.557012-0.347924-7.008624-0.889253-10.44284-1.480724-0.74906-0.096191-1.533936-0.192382-2.266623-0.340761-1.620917-0.296759-3.154853-0.740874-4.723581-1.1328-6.712889-1.481747-13.249769-3.347235-19.508309-5.814426l0 181.717691L264.733918 756.865917 264.733918 575.148226c-6.306636 2.467191-12.805654 4.383844-19.556405 5.909593-1.573845 0.296759-3.098571 0.740874-4.676509 1.081635-0.73678 0.148379-1.472538 0.200568-2.26253 0.348947-3.451612 0.539282-6.894014 1.081635-10.44284 1.428535l0 0c-4.040013 0.339738-8.124028 0.593518-12.31242 0.593518-8.420787 0-16.645099-0.845251-24.620747-2.319835L190.862467 830.740438c0 20.388353 16.543791 36.933167 36.932144 36.933167l566.344722 0c20.379143 0 36.923958-16.544815 36.923958-36.933167L831.063291 582.191642c-7.966439 1.473561-16.195867 2.319835-24.616654 2.319835C802.317597 584.510454 798.16809 584.256674 794.140357 583.916936L794.140357 583.916936zM794.140357 583.916936" p-id="1758" fill="#FD90A3"></path></svg>