<?xml version="1.0" standalone="no"?><!DOCTYPE svg PUBLIC "-//W3C//DTD SVG 1.1//EN" "http://www.w3.org/Graphics/SVG/1.1/DTD/svg11.dtd"><svg t="1546289601075" class="icon" style="" viewBox="0 0 1025 1024" version="1.1" xmlns="http://www.w3.org/2000/svg" p-id="5365" id="mx_n_1546289601078" xmlns:xlink="http://www.w3.org/1999/xlink" width="200.1953125" height="200"><defs><style type="text/css"></style></defs><path d="M980.536533 488.533333c0-2.133333-2.133333-4.266667-2.133333-6.4 12.8-17.066667 14.933333-40.533333 6.4-59.733333-10.666667-25.6-34.133333-40.533333-59.733333-38.4 8.533333-23.466667 4.266667-51.2-17.066667-70.4-19.2-17.066667-46.933333-21.333333-68.266667-12.8 0-23.466667-14.933333-46.933333-38.4-57.6s-49.066667-6.4-66.133333 8.533333c-6.4-21.333333-25.6-40.533333-49.066667-44.8-23.466667-4.266667-46.933333 4.266667-61.866666 21.333334-10.666667-19.2-29.866667-34.133333-53.333334-36.266667-23.466667-2.133333-44.8 10.666667-57.6 27.733333-12.8-19.2-34.133333-29.866667-57.6-27.733333s-44.8 14.933333-53.333333 34.133333c-14.933333-17.066667-38.4-25.6-61.866667-21.333333-23.466667 4.266667-42.666667 23.466667-49.066666 44.8-17.066667-14.933333-42.666667-19.2-66.133334-8.533333S186.936533 273.066667 186.936533 298.666667c-23.466667-10.666667-49.066667-6.4-68.266666 10.666666-19.2 17.066667-25.6 44.8-17.066667 68.266667-25.6 0-49.066667 14.933333-59.733333 38.4-8.533333 19.2-6.4 42.666667 4.266666 59.733333 0 4.266667-2.133333 6.4-2.133333 10.666667-2.133333 8.533333-2.133333 17.066667 0 25.6-12.8 23.466667-10.666667 51.2 8.533333 70.4 19.2 23.466667 51.2 27.733333 76.8 14.933333 2.133333 25.6 19.2 46.933333 44.8 55.466667 23.466667 6.4 46.933333 2.133333 64-14.933333 8.533333 21.333333 25.6 36.266667 49.066667 40.533333 23.466667 4.266667 44.8-4.266667 59.733333-21.333333 8.533333 19.2 27.733333 34.133333 51.2 36.266666h6.4c21.333333 0 40.533333-10.666667 53.333334-27.733333 2.133333 4.266667 6.4 8.533333 10.666666 12.8 12.8 12.8 27.733333 19.2 44.8 19.2h4.266667c17.066667 0 34.133333-6.4 44.8-19.2 4.266667-4.266667 6.4-8.533333 8.533333-12.8 12.8 17.066667 34.133333 29.866667 57.6 27.733333 23.466667-2.133333 42.666667-17.066667 51.2-36.266666 14.933333 17.066667 36.266667 25.6 59.733334 21.333333 23.466667-4.266667 42.666667-19.2 49.066666-40.533333 17.066667 14.933333 40.533333 21.333333 64 14.933333 25.6-8.533333 42.666667-29.866667 44.8-53.333333 25.6 12.8 57.6 8.533333 76.8-12.8 19.2-21.333333 21.333333-51.2 8.533334-74.666667 0-4.266667 0-12.8-2.133334-23.466667zM626.4032 697.6z" fill="#D50000" p-id="5366"></path><path d="M769.336533 552.533333c-106.666667 81.066667-256 21.333333-256 21.333334s-151.466667 59.733333-256-21.333334c-149.333333 78.933333-256-64-256-64s61.866667 209.066667 149.333334 298.666667c0 0 170.666667 64 362.666666 64s362.666667-64 362.666667-64c87.466667-89.6 149.333333-298.666667 149.333333-298.666667s-104.533333 145.066667-256 64z" fill="#FFC107" p-id="5367"></path><path d="M513.336533 573.866667l42.666667 21.333333-42.666667 256-42.666666-256 42.666666-21.333333z m-298.666666-21.333334l85.333333 277.333334v-256l-42.666667-21.333334h-42.666666z m554.666666 0l-42.666666 21.333334v256l85.333333-277.333334h-42.666667z" fill="#FFB300" p-id="5368"></path><path d="M1012.536533 469.333333c-10.666667-4.266667-23.466667 2.133333-27.733333 12.8 0 0-17.066667 44.8-66.133333 64-38.4 14.933333-85.333333 10.666667-140.8-12.8l-10.666667-4.266666-10.666667 6.4c-106.666667 74.666667-232.533333 21.333333-236.8 19.2l-6.4-4.266667-8.533333 4.266667c-2.133333 0-128 55.466667-236.8-19.2l-10.666667-6.4-8.533333 4.266666c-55.466667 23.466667-102.4 27.733333-140.8 12.8-46.933333-19.2-66.133333-64-66.133333-64-4.266667-10.666667-17.066667-17.066667-27.733334-12.8-10.666667 4.266667-17.066667 17.066667-12.8 27.733334 0 2.133333 25.6 61.866667 89.6 87.466666 46.933333 19.2 100.266667 17.066667 162.133334-8.533333 42.666667 34.133333 91.733333 46.933333 134.4 46.933333 55.466667 0 104.533333-17.066667 125.866666-25.6 19.2 8.533333 68.266667 25.6 125.866667 25.6 44.8 0 93.866667-10.666667 134.4-46.933333 61.866667 23.466667 115.2 27.733333 162.133333 8.533333 64-27.733333 87.466667-85.333333 89.6-87.466666 2.133333-10.666667-2.133333-23.466667-12.8-27.733334z" fill="#FF8F00" p-id="5369"></path><path d="M428.0032 328.533333c0 29.866667-23.466667 53.333333-53.333333 53.333334S321.336533 358.4 321.336533 328.533333s23.466667-53.333333 53.333334-53.333333 53.333333 25.6 53.333333 53.333333z m170.666667-74.666666c-23.466667 0-42.666667 19.2-42.666667 42.666666s19.2 42.666667 42.666667 42.666667 42.666667-19.2 42.666666-42.666667-19.2-42.666667-42.666666-42.666666z m192 85.333333c-36.266667 0-64 27.733333-64 64s27.733333 64 64 64 64-27.733333 64-64c0-34.133333-27.733333-64-64-64z m-277.333334 42.666667c-36.266667 0-64 27.733333-64 64s27.733333 64 64 64 64-27.733333 64-64c0-34.133333-27.733333-64-64-64z m-309.333333 0C174.136533 381.866667 150.669867 405.333333 150.669867 435.2s23.466667 53.333333 53.333333 53.333333 53.333333-23.466667 53.333333-53.333333c0-27.733333-23.466667-53.333333-53.333333-53.333333z" fill="#FF1744" p-id="5370"></path><path d="M321.336533 392.533333c0 29.866667-23.466667 53.333333-53.333333 53.333334S214.669867 422.4 214.669867 392.533333s23.466667-53.333333 53.333333-53.333333 53.333333 25.6 53.333333 53.333333z m21.333334 74.666667c0 23.466667 19.2 42.666667 42.666666 42.666667s42.666667-19.2 42.666667-42.666667-19.2-42.666667-42.666667-42.666667-42.666667 19.2-42.666666 42.666667z m320-106.666667c-36.266667 0-64 27.733333-64 64s27.733333 64 64 64 64-27.733333 64-64c0-34.133333-27.733333-64-64-64z m213.333333 106.666667c23.466667 0 42.666667-19.2 42.666667-42.666667s-19.2-42.666667-42.666667-42.666666-42.666667 19.2-42.666667 42.666666c0 25.6 19.2 42.666667 42.666667 42.666667z m-352-234.666667c-29.866667 0-53.333333 23.466667-53.333333 53.333334s23.466667 53.333333 53.333333 53.333333 53.333333-23.466667 53.333333-53.333333-23.466667-53.333333-53.333333-53.333334z" fill="#B71C1C" p-id="5371"></path></svg>